<svg xmlns="http://www.w3.org/2000/svg" id="Layer_1" viewBox="0 0 519.9 460.4">
  <path fill="#F1738E" stroke="#A11D21" stroke-width="10" stroke-miterlimit="10" d="M344.1 5C295 5 252.9 34.2 233.8 76.1 214.7 34.2 172.6 5 123.5 5c-38 0-73.8 17.5-95.9 48.6-24.2 34-29.1 84.2-14.3 123.1 21 55.1 76.4 156.8 220.4 278.8 144-122 199.4-223.6 220.4-278.8C484.5 97.2 432.4 5 344.1 5z" stroke-linecap="round" stroke-linejoin="round"/>
  <path fill="#F3889B" d="M30.7 57.2C8.1 89 2.5 137.7 17 175.6c9.4 24.7 28 64.4 63.5 113.2 39 53.8 90.2 107.9 152.3 160.8l4.5-3.9c-53.8-47.9-98.8-96.7-134.1-145.3-29-39.9-50.7-78.8-64.7-115.5C22.6 143.3 28.6 92 53.4 57.1 69.6 34.3 93.7 18 120.9 10.8c-36.2.5-69.9 17.8-90.2 46.4z"/>
  <path fill="#F2D2B6" d="M128.8 111.7l-4.7 5.6 3.1 6.6-6 4.2 1.3 7.1-6.9 2.5-.6 7.3-7.3.6-2.5 6.9-7.2-1.3-4.2 6-6.6-3.1-5.6 4.7-5.5-4.7-6.7 3.1-4.1-6-7.2 1.3-2.5-6.9-7.3-.6-.6-7.3-6.9-2.5 1.3-7.1-6-4.2 3.1-6.6-4.7-5.6 4.7-5.6-3.1-6.6 6-4.2-1.3-7.2 6.9-2.5.6-7.3 7.3-.6 2.5-6.9 7.2 1.3 4.1-6 6.7 3.1 5.5-4.7 5.6 4.7 6.6-3.1 4.2 6 7.2-1.3 2.5 6.9 7.3.6.6 7.3 6.9 2.5-1.3 7.2 6 4.2-3.1 6.6zm100.6 0l-4.7 5.6 3.1 6.6-5.9 4.2 1.2 7.1-6.8 2.5-.7 7.3-7.2.6-2.5 6.9-7.2-1.3-4.2 6-6.6-3.1-5.6 4.7-5.6-4.7-6.6 3.1-4.2-6-7.2 1.3-2.5-6.9-7.2-.6-.7-7.3-6.8-2.5 1.2-7.1-5.9-4.2 3-6.6-4.6-5.6 4.6-5.6-3-6.6 5.9-4.2-1.2-7.2 6.8-2.5.7-7.3 7.2-.6 2.5-6.9 7.2 1.3 4.2-6 6.6 3.1 5.6-4.7 5.6 4.7 6.6-3.1 4.2 6 7.2-1.3 2.5 6.9 7.2.6.7 7.3 6.8 2.5-1.2 7.2 5.9 4.2-3.1 6.6zm3.8 124.1l-7.3 8.7 4.8 10.4-9.3 6.5 2 11.3-10.8 3.9-1 11.3-11.3 1-3.9 10.8-11.3-2-6.5 9.3-10.4-4.8-8.7 7.3-8.8-7.3-10.3 4.8-6.6-9.3-11.2 2-3.9-10.8-11.4-1-1-11.3-10.7-3.9 2-11.3-9.4-6.5 4.9-10.4-7.4-8.7 7.4-8.8-4.9-10.3 9.4-6.6-2-11.2 10.7-3.9 1-11.4 11.4-1 3.9-10.7 11.3 2 6.5-9.4 10.3 4.9 8.8-7.4 8.7 7.4 10.4-4.9 6.5 9.4 11.3-2 3.9 10.7 11.3 1 1 11.4 10.8 3.9-2 11.2 9.3 6.6-4.8 10.3zM278 348.1l-4.3 5.2 2.8 6.2-5.5 3.9 1.1 6.7-6.4 2.4-.6 6.8-6.8.6-2.3 6.4-6.7-1.2-3.9 5.6-6.2-2.9-5.2 4.4-5.3-4.4-6.2 2.9-3.9-5.6-6.7 1.2-2.3-6.4-6.8-.6-.6-6.8-6.4-2.4 1.1-6.7-5.5-3.9 2.8-6.2-4.3-5.2 4.3-5.2-2.8-6.2 5.5-3.9-1.1-6.7 6.4-2.4.6-6.8 6.8-.6 2.3-6.4 6.7 1.2 3.9-5.6 6.2 2.9 5.3-4.4 5.2 4.4 6.2-2.9 3.9 5.6 6.7-1.2 2.3 6.4 6.8.6.6 6.8 6.4 2.4-1.1 6.7 5.5 3.9-2.8 6.2z"/>
  <circle cx="81.6" cy="111.7" r="41.5" fill="#733717"/>
  <text transform="translate(58.753 111.667)">
    <tspan x="0" y="0" fill="#FBD4D4" font-family="'OpenSans-CondensedBold'" font-size="40">UK</tspan><tspan x="-7.7" y="22" fill="#FBD4D4" font-family="'OpenSans-CondensedBold'" font-size="23">$66</tspan><tspan x="24.2" y="22" fill="#FBD4D4" font-family="'OpenSans-CondensedBold'" font-size="14.795"> USD</tspan>
  </text>
  <circle cx="182.3" cy="111.7" r="41.5" fill="#985424"/>
  <text transform="translate(159.307 114.67)">
    <tspan x="0" y="0" fill="#FBD4D4" font-family="'Oswald-Regular'" font-size="40">US</tspan><tspan x="-7" y="19.2" fill="#FBD4D4" font-family="'OpenSans-CondensedBold'" font-size="20.038">$108</tspan><tspan x="30.1" y="19.2" fill="#FBD4D4" font-family="'OpenSans-CondensedBold'" font-size="12.89"> USD</tspan>
  </text>
  <circle cx="159.5" cy="235.8" r="65.5" fill="#733717"/>
  <text transform="translate(117.534 248.845)">
    <tspan x="0" y="0" fill="#FBD4D4" font-family="'OpenSans-CondensedBold'" font-size="12.387">$10.5 billion:</tspan><tspan x="0" y="13.3" fill="#FBD4D4" font-family="'OpenSans-CondensedBold'" font-size="12.387">Spouses/significant </tspan><tspan x="0" y="26.5" fill="#FBD4D4" font-family="'OpenSans-CondensedBold'" font-size="12.387">others</tspan>
  </text>
  <text fill="#FBD4D4" transform="translate(111.317 235.572)" font-family="'OpenSans-CondensedBold'" font-size="57.192">
    56%
  </text>
  <circle cx="234" cy="348.1" r="36.8" fill="#985424"/>
  <text fill="#FBD4D4" transform="translate(221.224 342.83)" font-family="'OpenSans-CondensedBold'" font-size="27.958">
    5%
  </text>
  <text transform="translate(205.012 355.935)">
    <tspan x="0" y="0" fill="#FBD4D4" font-family="'OpenSans-CondensedBold'" font-size="11.333">$815 million:</tspan><tspan x="18.3" y="12.1" fill="#FBD4D4" font-family="'OpenSans-CondensedBold'" font-size="11.333"> Pets</tspan>
  </text>
  <g fill="none" stroke="#FFF" stroke-width="3" stroke-miterlimit="10" stroke-linecap="round">
    <path d="M300 172.6v3.2" stroke-dasharray="0 6.256"/>
    <path d="M307.1 178.9h166.1" stroke-dasharray="0 7.067"/>
    <path d="M476.7 185.9v137.2" stroke-dasharray="0 7.036"/>
  </g>
  <path fill="none" stroke="#FFF" stroke-width="3.183" stroke-miterlimit="10" d="M431.4 140.3h81.3v244.6" stroke-linecap="round" stroke-dasharray="0 7.428"/>
  <path fill="#F3889B" d="M480.2 322.8c-1.5 0-2.9.9-3.5 2.2-.6-1.3-1.9-2.2-3.5-2.2-1.2 0-2.3.6-3 1.5-.8 1.1-.9 2.7-.5 3.9.7 1.7 2.4 4.9 7 8.8 4.5-3.8 6.3-7.1 7-8.8.9-2.5-.8-5.4-3.5-5.4zm36 51.6c-1.5 0-2.9.9-3.5 2.2-.6-1.3-1.9-2.2-3.5-2.2-1.2 0-2.3.6-3 1.5-.8 1.1-.9 2.7-.5 3.9.7 1.7 2.4 4.9 7 8.8 4.5-3.8 6.3-7.1 7-8.8.9-2.5-.8-5.4-3.5-5.4z"/>
  <path fill="#F2D2B6" d="M330.4 77.1l7.4-4.5-6.5-4 4.5-6-7.7-1.3s0-.1-.1-.1l1.6-8-7.3 2.1-4.2-6.9-4.3 7.1h-.4l-4.3-7.1-4.3 7.1h-.4l-4.3-7.1-4.3 7.1h-.4l-4.3-7.1-4.3 7.1h-.4l-4.3-7.1-4.2 6.9-7.3-2.1 1.5 7.4-7.5 1.2 4.8 6.4-6.9 4.2 7.4 4.5-7.4 4.5 7.4 4.5-7.4 4.5 7.4 4.5-7.4 4.5 7.4 4.5-7.4 4.5 7.4 4.5-7.4 4.5 7.4 4.5-7.4 4.5 7.4 4.5-7.4 4.5 7.2 4.4-5.1 6.8 7.5 1.2-1.5 7.4 7.3-2.1 4.2 6.9 4.4-7.2h.2l4.4 7.2 4.4-7.2h.2l4.4 7.2 4.4-7.2h.2l4.4 7.2 4.4-7.2h.2l4.4 7.2 4.2-6.9 7.3 2.1-1.6-8 7.7-1.3-4.8-6.4 6.8-4.1-7.4-4.5 7.4-4.5-7.4-4.5 7.4-4.5-7.4-4.5 7.4-4.5-7.4-4.5 7.4-4.5-7.4-4.5 7.4-4.5-7.4-4.5 7.4-4.5-7.3-4.3zm86.7 0l7.4-4.5-6.5-4 4.5-6-7.7-1.3s0-.1-.1-.1l1.6-8-7.3 2.1-4.2-6.9-4.3 7.1h-.4l-4.3-7.1-4.3 7.1h-.5l-4.3-7.1-4.3 7.1h-.4l-4.3-7.1-4.3 7.1h-.4l-4.3-7.1-4.2 6.9-7.3-2.1 1.5 7.4-7.5 1.2 4.8 6.4-6.9 4.2 7.4 4.5-7.4 4.5 7.4 4.5-7.4 4.5 7.4 4.5-7.4 4.5 7.4 4.5-7.4 4.5 7.4 4.5-7.4 4.5 7.4 4.5-7.4 4.5 7.4 4.5-7.4 4.5 7.2 4.4-5.1 6.8 7.5 1.2-1.5 7.4 7.3-2.1 4.2 6.9 4.4-7.2h.2l4.4 7.2 4.4-7.2h.2l4.4 7.2 4.4-7.2h.2l4.4 7.2 4.4-7.2h.2l4.4 7.2 4.2-6.9 7.3 2.1-1.6-8 7.7-1.3-4.8-6.4 6.8-4.1-7.4-4.5 7.4-4.5-7.4-4.5 7.4-4.5-7.4-4.5 7.4-4.5-7.4-4.5 7.4-4.5-7.4-4.5 7.4-4.5-7.4-4.5 7.4-4.5-7.2-4.3zm-64 204.6l6 10.4 5.2-9.1 7.9 6.3 1.7-10.8.1-.1 10.5 2.2-2.8-10.3 9.1-5.9-9.3-6.1v-.5l9.3-6.1-9.3-6.1v-.5l9.3-6.1-9.3-6.1v-.5l9.3-6.1-9.3-6.1v-.5l9.3-6.1-9.1-5.9 2.8-10.3-9.7 2-1.6-10.5-8.5 6.7-5.5-9.7-6 10.4-6-10.4-6 10.4-6-10.4-6 10.4-6-10.4-6 10.4-6-10.4-6 10.4-6-10.4-6 10.4-6-10.4-6 10.4-6-10.4-5.8 10.1-9-7.1-1.6 10.5-9.7-2 2.8 10.3-9.1 5.9 9.5 6.2v.3l-9.5 6.2 9.5 6.2v.3l-9.5 6.2 9.5 6.2v.3l-9.5 6.2 9.5 6.2v.3l-9.5 6.2 9.1 5.9-2.8 10.3 10.6-2.2 1.7 10.9 8.5-6.7 5.4 9.5 6-10.4 6 10.4 6-10.4 6 10.4 6-10.4 6 10.4 6-10.4 6 10.4 6-10.4 6 10.4 6-10.4 6 10.4 5.8-10.4z"/>
  <path fill="#733717" d="M317.7 153.1h-35.3c-6.6 0-12-5.4-12-12V68.5c0-6.6 5.4-12 12-12h35.3c6.6 0 12 5.4 12 12v72.7c0 6.5-5.4 11.9-12 11.9z"/>
  <text transform="translate(278.625 99.667)">
    <tspan x="0" y="0" fill="#FBD4D4" font-family="'OpenSans-CondensedBold'" font-size="40">UK</tspan><tspan x="-1.8" y="23" fill="#FBD4D4" font-family="'OpenSans-CondensedBold'" font-size="28">$1.6</tspan>
  </text>
  <path fill="#985424" d="M404.4 153.1H369c-6.6 0-12-5.4-12-12V68.5c0-6.6 5.4-12 12-12h35.3c6.6 0 12 5.4 12 12v72.7c.1 6.5-5.3 11.9-11.9 11.9z"/>
  <text transform="translate(367.185 99.667)">
    <tspan x="0" y="0" fill="#FBD4D4" font-family="'OpenSans-CondensedBold'" font-size="40">US</tspan><tspan x="-7" y="24" fill="#FBD4D4" font-family="'OpenSans-CondensedBold'" font-size="25">$18.6</tspan>
  </text>
  <path fill="#733717" d="M379.2 211.8v54.3c0 9.1-7.4 16.5-16.5 16.5h-91.4c-9.1 0-16.5-7.4-16.5-16.5v-54.3c0-9.1 7.4-16.5 16.5-16.5h91.4c9 0 16.5 7.4 16.5 16.5z"/>
  <text fill="#FBD4D4" transform="translate(259.986 236.19)" font-family="'OpenSans-CondensedBold'" font-size="40.763">
    39%
  </text>
  <path fill="none" d="M262.4 241.8h126.3v55.3H262.4z"/>
  <text transform="translate(262.427 250.163)">
    <tspan x="0" y="0" fill="#FBD4D4" font-family="'OpenSans-CondensedBold'" font-size="11">Other family members, </tspan><tspan x="0" y="13.8" fill="#FBD4D4" font-family="'OpenSans-CondensedBold'" font-size="11">friends, classmate/others</tspan>
  </text>
  <text fill="#FBD4D4" transform="translate(274.176 140.348)" font-family="'OpenSans-CondensedBold'" font-size="12">
    BIllion USD
  </text>
  <text fill="#FBD4D4" transform="translate(362.508 140.348)" font-family="'OpenSans-CondensedBold'" font-size="12">
    BIllion USD
  </text>
</svg>
