<?xml version="1.0" encoding="utf-8"?>
<!-- Generator: Adobe Illustrator 19.2.0, SVG Export Plug-In . SVG Version: 6.00 Build 0)  -->
<!DOCTYPE svg PUBLIC "-//W3C//DTD SVG 1.1//EN" "http://www.w3.org/Graphics/SVG/1.1/DTD/svg11.dtd">
<svg version="1.1" id="Layer_1" xmlns="http://www.w3.org/2000/svg" xmlns:xlink="http://www.w3.org/1999/xlink" x="0px" y="0px"
	 viewBox="0 0 161.2 124.3" enable-background="new 0 0 161.2 124.3" xml:space="preserve">
<path fill="#C32636" d="M130.8,123.9H12.4c-6.8,0-12.4-5.6-12.4-12.4V50.7c0-6.8,5.6-12.4,12.4-12.4h118.4c6.8,0,12.4,5.6,12.4,12.4
	v60.9C143.1,118.3,137.6,123.9,130.8,123.9z"/>
<path fill="#CC4552" d="M9.4,119.8V55.5c0-5.9,6.5-10.7,14.4-10.7h114.4c1.4,0,2.8,0.2,4.2,0.5c-2-4.1-7.3-7.1-13.5-7.1H14.4
	C6.5,38.3,0,43,0,48.9v64.3c0,4.8,4.3,8.9,10.2,10.2C9.7,122.3,9.4,121.1,9.4,119.8z"/>
<path fill="#A51E24" d="M135.4,40c1.5,1.3,1.6,3.6,1.6,5.7c0,20.3,0.1,40.6,0.1,61c0,1.7,0,3.5-0.5,5.2c-1.8,6.1-9,8.3-14.7,8.7
	c-5.5,0.4-11-0.2-16.4-0.2c-6.8,0-13.7,0-20.5,0c-15.7,0-31.4,0-47.1,0c-9.3,0-18.6,0-27.8,0c-2.8,0-5.4-0.4-7.7-1.2
	c2.7,3,8.1,5.1,14.3,5.1c0,0,110.9,0,110.9,0c4.5,0,10-1,13.4-4.2c3.6-3.4,3.4-8.9,3.2-13.4c-0.3-5.8-0.3-11.6-0.4-17.4
	c0-13-0.1-25.9-0.1-38.9c0-1.7,0-3.5-0.7-5C141.6,42.5,138.4,41.1,135.4,40z"/>
<path fill="#F1738E" d="M124,29.9c-14.4,11.4-29,13.2-34.2,7.7C84.5,32,89.3,19,92.3,13.2C94,9.9,99,0.2,105.6,0
	C112.9-0.2,121.1,11.7,124,29.9z"/>
<path fill="#F1738E" d="M124.8,30.9c1.9,18.2,10.9,30,18.4,29.8c7.7-0.2,13.6-12.7,15.7-18.9c1.2-3.6,4.6-14,0.1-18.7
	C154,17.8,139.8,20.2,124.8,30.9z"/>
<rect x="112.2" y="37.1" fill="#F3889B" width="10.8" height="87.2"/>
<polygon fill="#F3889B" points="0,106.6 0,98.6 143.8,98.6 144.1,106.7 "/>
<polygon fill="#F1738E" points="117.5,29.3 86,60.4 99.9,61 125.4,32.6 "/>
<polygon fill="#F1738E" points="129.9,34.5 129.8,78.7 119.6,69.3 122.1,31.2 "/>
<path fill="#F1738E" d="M121.4,42.3l-3-1.2c-4.2-1.7-6.3-6.6-4.6-10.8l0,0c1.7-4.2,6.6-6.3,10.8-4.6l3,1.2c4.2,1.7,6.3,6.6,4.6,10.8
	l0,0C130.4,41.9,125.6,44,121.4,42.3z"/>
</svg>
